<?xml version="1.0" encoding="UTF-8" standalone="no"?>
<!-- Created with Inkscape (http://www.inkscape.org/) -->

<svg
   width="200.0px"
   height="200.0px"
   viewBox="0 0 200.0 200.0"
   version="1.1"
   id="SVGRoot"
   sodipodi:docname="blue.svg"
   xml:space="preserve"
   inkscape:version="1.2.1 (9c6d41e4, 2022-07-14)"
   inkscape:export-filename="blue-svg.png"
   inkscape:export-xdpi="96"
   inkscape:export-ydpi="96"
   xmlns:inkscape="http://www.inkscape.org/namespaces/inkscape"
   xmlns:sodipodi="http://sodipodi.sourceforge.net/DTD/sodipodi-0.dtd"
   xmlns="http://www.w3.org/2000/svg"
   xmlns:svg="http://www.w3.org/2000/svg"><sodipodi:namedview
     id="namedview281"
     pagecolor="#ffffff"
     bordercolor="#666666"
     borderopacity="1.0"
     inkscape:showpageshadow="2"
     inkscape:pageopacity="0.0"
     inkscape:pagecheckerboard="0"
     inkscape:deskcolor="#d1d1d1"
     inkscape:document-units="px"
     showgrid="true"
     inkscape:zoom="7.319248"
     inkscape:cx="66.058699"
     inkscape:cy="98.575701"
     inkscape:window-width="2480"
     inkscape:window-height="1839"
     inkscape:window-x="763"
     inkscape:window-y="119"
     inkscape:window-maximized="0"
     inkscape:current-layer="layer3"
     showguides="false"><inkscape:grid
       type="xygrid"
       id="grid287" /><sodipodi:guide
       position="10.047358,77.692738"
       orientation="1,0"
       id="guide294"
       inkscape:locked="false" /><sodipodi:guide
       position="189.93371,76.533428"
       orientation="1,0"
       id="guide296"
       inkscape:locked="false" /><sodipodi:guide
       position="86.94829,189.95264"
       orientation="0,-1"
       id="guide298"
       inkscape:locked="false" /><sodipodi:guide
       position="60.477366,9.8730716"
       orientation="0,-1"
       id="guide300"
       inkscape:locked="false" /><sodipodi:guide
       position="100.08714,76.726646"
       orientation="1,0"
       id="guide360"
       inkscape:locked="false" /><sodipodi:guide
       position="65.501045,99.912857"
       orientation="0,-1"
       id="guide419"
       inkscape:locked="false" /><sodipodi:guide
       position="72.843346,143.82174"
       orientation="0,-1"
       id="guide1736"
       inkscape:locked="false" /></sodipodi:namedview><defs
     id="defs276" /><g
     inkscape:groupmode="layer"
     id="layer3"
     inkscape:label="Layer 2"><path
       style="fill:#54b9de;fill-opacity:1;stroke:#54b9de;stroke-width:1px;stroke-linecap:butt;stroke-linejoin:miter;stroke-opacity:1"
       d="m 117.60139,144.43138 -17.80283,20.41529 -15.6554,-20.40014 9.28228,-2.00393 2.99061,-2.59992 6.96652,0.0966 3.79664,2.70482 z"
       id="path1685-8"
       sodipodi:nodetypes="cccccccc" /><path
       style="fill:#54b9de;fill-opacity:1;stroke:#54b9de;stroke-width:1px;stroke-linecap:butt;stroke-linejoin:miter;stroke-opacity:1"
       d="m 82.248887,56.169885 17.802823,-20.415297 15.65541,20.400143 -9.28229,2.00393 -2.99061,2.599917 -6.966514,-0.09661 -3.796645,-2.704814 z"
       id="path1685"
       sodipodi:nodetypes="cccccccc" /><path
       id="path11443"
       style="display:inline;fill:#54b9de;fill-opacity:1;stroke:#54b9de;stroke-width:1px;stroke-linecap:butt;stroke-linejoin:miter;stroke-opacity:1"
       d="m 129.55078,59.107422 c -0.4078,-0.0047 -0.81367,-0.0036 -1.21875,0.0039 -9.6485,0.179208 -18.28822,5.158285 -27.22851,8.791016 -7.305174,2.968323 -14.858479,5.64879 -21.451176,9.974609 -2.96542,1.945769 -6.114802,3.962353 -9.488282,8.501953 -2.892021,3.891715 -3.821392,8.192137 -7.589843,6.664063 -6.263455,-2.539779 -5.216638,-14.574249 -1.501953,-20.220703 2.145159,-3.260723 7.194315,-3.335322 11.066406,-3.826172 4.487434,-0.568857 9.675055,3.46769 13.52539,1.09375 1.547727,-0.954257 2.844003,-3.42053 2.050782,-5.056641 C 84.937859,59.305345 75.717029,59.158556 69.375,59.705078 c -6.301989,0.543073 -13.363738,3.191566 -17.046875,8.333984 -3.76942,5.262889 -4.107172,13.005433 -2.458984,19.265626 2.808353,10.666772 11.803827,18.917122 19.810547,26.503902 5.363693,5.08239 19.124857,4.93921 18.443359,12.29688 -0.342499,3.69773 -6.582659,3.76501 -10.246094,4.37305 -4.234862,0.70286 -9.18162,1.2828 -12.84375,-0.95704 -2.911772,-1.78089 -4.593508,-5.41091 -5.328125,-8.74414 -0.779355,-3.53621 2.607118,-7.44378 1.230469,-10.79296 -1.022112,-2.48665 -3.660998,-5.63943 -6.285156,-5.05469 -4.552561,1.01445 -5.408414,7.96322 -6.148438,12.56836 -0.904366,5.62781 -1.00588,12.31392 2.322266,16.9414 3.294082,4.58014 9.63346,6.41134 15.166015,7.51563 5.415778,1.08098 11.198801,0.34296 16.53125,-1.09375 5.939074,-1.60015 11.040216,-5.42956 16.533204,-8.19727 7.675932,-3.86759 11.689612,-4.29377 18.507812,-9.52734 2.06929,-1.58837 8.87275,-5.2651 10.5293,-7.92578 1.96774,-3.16055 2.29684,-7.13898 5.39258,-7.00391 2.33863,0.10203 3.50614,3.37686 4.23437,5.60156 0.96352,2.94351 1.19313,6.49386 -0.13672,9.29102 -1.58235,3.32825 -4.97068,5.95189 -8.4707,7.10547 -4.24676,1.39969 -8.96507,-1.47271 -13.38867,-0.82031 -2.20952,0.32586 -4.92505,0.55075 -6.28516,2.32226 -1.19772,1.56 -1.56658,4.19324 -0.54688,5.875 2.37221,3.91232 8.1857,4.49064 12.70704,5.19141 6.72739,1.04269 14.54308,1.9023 20.35742,-1.63867 5.5908,-3.40486 9.39061,-10.1976 10.38281,-16.66797 0.85555,-5.57924 -1.48928,-11.46453 -4.23437,-16.39649 -3.4934,-6.27636 -10.13271,-10.194619 -14.89258,-15.574216 -3.43134,-3.878078 -5.86598,-8.701187 -9.83789,-12.023438 -3.51854,-2.943016 -11.86329,-2.111018 -12.02344,-6.695312 -0.0873,-2.499554 3.86802,-3.45512 6.28516,-4.097656 5.29058,-1.406375 11.51793,-1.532301 16.39453,0.955078 2.88298,1.470511 5.48309,4.348397 6.14843,7.515625 0.76782,3.654936 -3.92608,7.173401 -3.00585,10.792968 0.99989,3.932973 3.92475,9.20855 7.89257,8.357422 6.15549,-1.320393 6.20413,-11.369707 6.32422,-17.664062 0.10577,-5.544084 -1.11565,-10.786622 -5.05469,-14.689453 -4.317,-4.277339 -10.66622,-5.76931 -16.7832,-5.839844 z m -24.77539,22.898437 24.05664,18.935551 -23.76758,17.39062 v -9.24858 c 0,-1.73119 2.92094,-2.61901 3.94031,-4.01826 1.05167,-1.44357 2.4354,-2.87393 2.38668,-4.6593 -0.0511,-1.872889 -1.4554,-2.985275 -2.70507,-4.381221 -0.97134,-1.084998 -3.32767,-1.366938 -3.78112,-2.750814 -0.29463,-0.899168 -0.12986,-11.267996 -0.12986,-11.267996 z m -10.582031,1.271485 c 0,0 0,6.597069 0,9.895604 0,1.731194 -3.021446,1.935876 -4.04083,3.335123 -1.051676,1.443571 -1.649798,2.29522 -1.601072,4.080589 0.05111,1.87291 1.011352,3.22243 2.261043,4.61837 0.971335,1.08501 3.12077,2.05007 3.574219,3.43395 0.294627,0.89917 0.09766,10.96058 0.09766,10.96058 L 70.427734,100.66602 Z"
       sodipodi:nodetypes="ssssssssssssssssssssssssssssssssscssssssssssssssscccsssssccsssssccc" /><path
       id="path28527"
       style="fill:#0096c7;fill-opacity:1;stroke:#0096c7;stroke-opacity:1"
       d="M 100.2832 9.0175781 L 21.412109 54.394531 L 21.277344 145.38867 L 100.00977 191.00391 L 178.88086 145.625 L 179.01758 54.632812 L 100.2832 9.0175781 z M 99.873047 14.619141 L 173.99219 57.570312 L 173.85547 143.23438 L 99.599609 185.94727 L 25.480469 142.99805 L 25.617188 57.332031 L 99.873047 14.619141 z " /></g></svg>
