<?xml version="1.0" encoding="UTF-8" standalone="no"?>
<!-- Created with Inkscape (http://www.inkscape.org/) -->

<svg
   width="200.0px"
   height="200.0px"
   viewBox="0 0 200.0 200.0"
   version="1.1"
   id="SVGRoot"
   sodipodi:docname="grey.svg"
   xml:space="preserve"
   inkscape:version="1.2.1 (9c6d41e4, 2022-07-14)"
   inkscape:export-filename="grey-svg.png"
   inkscape:export-xdpi="96"
   inkscape:export-ydpi="96"
   xmlns:inkscape="http://www.inkscape.org/namespaces/inkscape"
   xmlns:sodipodi="http://sodipodi.sourceforge.net/DTD/sodipodi-0.dtd"
   xmlns="http://www.w3.org/2000/svg"
   xmlns:svg="http://www.w3.org/2000/svg"><sodipodi:namedview
     id="namedview37195"
     pagecolor="#ffffff"
     bordercolor="#666666"
     borderopacity="1.0"
     inkscape:showpageshadow="2"
     inkscape:pageopacity="0.0"
     inkscape:pagecheckerboard="0"
     inkscape:deskcolor="#d1d1d1"
     inkscape:document-units="px"
     showgrid="true"
     inkscape:zoom="10.815"
     inkscape:cx="97.133611"
     inkscape:cy="146.78687"
     inkscape:window-width="2696"
     inkscape:window-height="1979"
     inkscape:window-x="532"
     inkscape:window-y="142"
     inkscape:window-maximized="0"
     inkscape:current-layer="layer1"
     showguides="true"><inkscape:grid
       type="xygrid"
       id="grid37201" /><sodipodi:guide
       position="20.493909,190.0263"
       orientation="0,-1"
       id="guide37208"
       inkscape:locked="false" /><sodipodi:guide
       position="15.985249,100.12635"
       orientation="0,-1"
       id="guide37210"
       inkscape:locked="false" /><sodipodi:guide
       position="28.008342,10.08978"
       orientation="0,-1"
       id="guide37214"
       inkscape:locked="false" /><sodipodi:guide
       position="10.110328,52.170606"
       orientation="1,0"
       id="guide37216"
       inkscape:locked="false" /><sodipodi:guide
       position="99.873648,60.778048"
       orientation="1,0"
       id="guide37218"
       inkscape:locked="false" /><sodipodi:guide
       position="189.91022,61.73443"
       orientation="1,0"
       id="guide37220"
       inkscape:locked="false" /></sodipodi:namedview><defs
     id="defs37190" /><g
     inkscape:label="Layer 1"
     inkscape:groupmode="layer"
     id="layer1"><path
       id="path44250-5"
       style="fill:#b0c2cc;stroke:#b1c3cd;stroke-width:1px;stroke-linecap:butt;stroke-linejoin:miter;stroke-opacity:1;fill-opacity:1"
       d="M 94.818359,34.292969 74.1875,48.365234 l 0.546875,46.042969 -7.513672,5.464844 -0.820312,-46.179688 -20.767579,12.980469 0.136719,18.44336 4.509766,2.050781 v 22.816411 l -8.472656,4.23437 v 16.94141 l 58.468749,35.51953 c 19.34394,-11.61344 39.03566,-23.64379 58.47656,-35.45313 v -16.9414 l -8.4707,-4.23633 V 87.232422 l 4.50781,-2.048828 0.13672,-18.445313 -20.76758,-12.978515 -0.82031,46.179687 -7.51367,-5.466797 0.54687,-46.042968 -20.63086,-14.072266 -0.13671,93.863278 20.2207,-20.2207 -10.10938,23.9082 28.96289,-6.55664 -44.39453,23.22266 C 85.592358,140.76391 70.676192,133.0245 55.880859,125.28516 l 28.964844,6.55859 -10.111328,-23.9082 20.220703,20.21875 z"
       sodipodi:nodetypes="ccccccccccccccccccccccccccccccccc" /><path
       id="path44243"
       style="fill:#7d8c96;fill-opacity:1;stroke:#7e8c95;stroke-opacity:1"
       d="M 99.894531 10.240234 L 22.585938 54.875 L 22.585938 144.14062 L 99.894531 188.77344 L 177.20117 144.14062 L 177.20117 54.875 L 99.894531 10.240234 z M 99.894531 14.685547 L 173.85547 57.386719 L 173.85547 142.78906 L 99.894531 185.49023 L 25.933594 142.78906 L 25.933594 57.386719 L 99.894531 14.685547 z " /></g></svg>
