<?xml version="1.0" encoding="UTF-8" standalone="no"?>
<!-- Created with Inkscape (http://www.inkscape.org/) -->

<svg
   width="200.0px"
   height="200.0px"
   viewBox="0 0 200.0 200.0"
   version="1.1"
   id="SVGRoot"
   sodipodi:docname="purple.svg"
   xml:space="preserve"
   inkscape:version="1.2.1 (9c6d41e4, 2022-07-14)"
   inkscape:export-filename="purple-svg.png"
   inkscape:export-xdpi="96"
   inkscape:export-ydpi="96"
   xmlns:inkscape="http://www.inkscape.org/namespaces/inkscape"
   xmlns:sodipodi="http://sodipodi.sourceforge.net/DTD/sodipodi-0.dtd"
   xmlns="http://www.w3.org/2000/svg"
   xmlns:svg="http://www.w3.org/2000/svg"><sodipodi:namedview
     id="namedview28883"
     pagecolor="#ffffff"
     bordercolor="#666666"
     borderopacity="1.0"
     inkscape:showpageshadow="2"
     inkscape:pageopacity="0.0"
     inkscape:pagecheckerboard="0"
     inkscape:deskcolor="#d1d1d1"
     inkscape:document-units="px"
     showgrid="true"
     inkscape:zoom="5.6568542"
     inkscape:cx="62.313785"
     inkscape:cy="103.1492"
     inkscape:window-width="2768"
     inkscape:window-height="1837"
     inkscape:window-x="244"
     inkscape:window-y="204"
     inkscape:window-maximized="0"
     inkscape:current-layer="layer1"
     showguides="true"><inkscape:grid
       type="xygrid"
       id="grid28889" /><sodipodi:guide
       position="69.406037,190.16292"
       orientation="0,-1"
       id="guide28972"
       inkscape:locked="false" /><sodipodi:guide
       position="31.423993,10.08978"
       orientation="0,-1"
       id="guide28974"
       inkscape:locked="false" /><sodipodi:guide
       position="9.9737022,110.91981"
       orientation="1,0"
       id="guide28976"
       inkscape:locked="false" /><sodipodi:guide
       position="99.737022,105.59139"
       orientation="1,0"
       id="guide28978"
       inkscape:locked="false" /><sodipodi:guide
       position="190.04685,120.34701"
       orientation="1,0"
       id="guide28980"
       inkscape:locked="false" /><sodipodi:guide
       position="129.79475,99.989726"
       orientation="0,-1"
       id="guide28982"
       inkscape:locked="false" /></sodipodi:namedview><defs
     id="defs28878" /><g
     inkscape:label="Layer 1"
     inkscape:groupmode="layer"
     id="layer1"><path
       id="path35667-0"
       style="fill:#aa84bd;stroke:#aa84bd;stroke-width:1px;stroke-linecap:butt;stroke-linejoin:miter;stroke-opacity:1;fill-opacity:1"
       d="m 100.5,36.875 c -3.669507,0.04088 -7.266988,1.219321 -10.75,2.375 -3.947128,1.309676 -7.740334,3.104043 -11.375,5.125 -2.807807,1.561203 -5.537185,3.312068 -8,5.375 -1.287605,1.078539 -2.34798,2.402698 -3.5,3.625 -1.941628,2.060082 -4.098994,3.950427 -5.75,6.25 C 60.265846,60.821656 59,63.5 59,63.5 L 57.125,70.375 46.625,62 c 0,0 -1.490384,10.726813 -1.5,16.125 -0.0092,5.145436 -0.382098,10.538866 1.375,15.375 1.195962,3.291695 4.052751,5.714021 6,8.625 0.771143,1.1528 2.25,3.5 2.25,3.5 l 1.625,3.75 -7,-3.25 -7.875,-6.5 c 0,0 3.926328,10.23918 7.25,14.5 3.10769,3.98394 6.890218,7.80635 11.5,9.875 4.833211,2.16892 10.462281,1.80227 15.75,2.125 C 79.410568,126.33316 86.25,126 86.25,126 l -0.75,8.875 c 0,0 8.16953,-1.8816 11.5,-4.25 3.47383,-2.47035 6.80219,-5.8228 8.125,-9.875 1.37154,-1.85626 0.16485,-7.46727 0.45508,-7.49609 0,0 9.53111,-0.68832 12.13476,2.51953 2.82382,3.47909 2.01853,9.45788 -0.0332,13.4414 -1.55287,3.01502 -8.26758,5.92969 -8.26758,5.92969 l -1.33594,2.93555 9.08204,-0.76953 c 0,0 -7.34593,4.47782 -11.41602,5.72656 -3.53604,1.08489 -7.30526,1.32108 -11.001952,1.44336 -5.40536,0.17882 -10.880667,-0.0203 -16.191407,-1.04297 -5.331178,-1.02667 -10.706097,-2.47972 -15.480469,-5.06445 -2.830674,-1.53245 -4.971994,-4.09072 -7.53125,-6.04297 -1.705386,-1.3009 -3.571521,-2.39229 -5.210937,-3.77539 -3.075344,-2.59451 -8.626953,-8.44336 -8.626953,-8.44336 0,0 1.671737,7.23028 3.533203,10.37305 1.870156,3.15744 4.691248,5.68255 7.433594,8.12109 3.107774,2.76349 6.557456,5.15182 10.125,7.28906 2.755924,1.65106 5.636323,3.13887 8.654297,4.24024 1.577846,0.57583 3.256077,0.83222 4.890625,1.21875 2.754904,0.65143 5.470125,1.57543 8.287109,1.85546 1.465918,0.14573 4.417969,-0.0976 4.417969,-0.0976 l 6.892578,-1.81445 -2.003906,13.28124 c 0,0 10.035079,-4.07291 14.714839,-6.76367 4.46059,-2.56491 9.31729,-4.93719 12.62696,-8.87695 2.25272,-2.68159 2.92334,-6.36791 4.4707,-9.50977 0.61278,-1.24421 1.90625,-3.69726 1.90625,-3.69726 l 2.43359,-3.2832 0.68555,7.6875 -1.69141,10.07031 c 0,0 6.90547,-8.5205 8.9336,-13.5293 1.89635,-4.6833 3.31418,-9.86999 2.80078,-14.89648 -0.53827,-5.27015 -3.67079,-9.96245 -6.03516,-14.70313 -1.52499,-3.05772 -5.23242,-8.814451 -5.23242,-8.814451 l 8.06055,-3.78711 c 0,0 -5.71335,-6.133913 -9.42969,-7.833984 -3.87628,-1.773247 -8.44453,-2.980126 -12.61523,-2.099609 -2.68744,-0.207993 -6.8167,4.111343 -7.03321,3.541015 0,0 -5.36101,-7.910766 -3.88476,-11.769531 1.60108,-4.185047 7.18251,-6.478414 11.6582,-6.693359 3.38752,-0.162688 9.26758,4.197265 9.26758,4.197265 l 3.21094,-0.310547 -5.20703,-7.482421 c 0,0 7.54952,4.124965 10.66601,7.02539 2.70756,2.519855 4.7977,5.664403 6.75195,8.804688 2.85754,4.591777 5.42175,9.434315 7.19141,14.544922 1.77647,5.130282 3.20674,10.510392 3.35547,15.937502 0.0882,3.21765 -1.05768,6.35241 -1.46875,9.54492 -0.27392,2.12736 -0.28598,4.28906 -0.66406,6.40039 -0.70924,3.96058 -2.99805,11.69336 -2.99805,11.69336 0,0 5.42582,-5.06459 7.2168,-8.24805 1.79936,-3.19833 2.57574,-6.90383 3.3164,-10.49804 0.83936,-4.07316 1.18287,-8.25392 1.25,-12.41211 0.0519,-3.21224 -0.0991,-6.45286 -0.65429,-9.617191 -0.29024,-1.654372 -0.9081,-3.234922 -1.39063,-4.84375 -0.81328,-2.711542 -1.37113,-5.523912 -2.53711,-8.103516 -0.60676,-1.342382 -2.29297,-3.777344 -2.29297,-3.777344 l -5.01757,-5.0625 12.5039,-4.904297 c 0,0 -8.54469,-6.655857 -13.21484,-9.363281 -4.45149,-2.580687 -8.93519,-5.599717 -14.00196,-6.496093 -3.44867,-0.610119 -6.97609,0.65389 -10.4707,0.884765 -1.38393,0.09143 -4.15625,0.197266 -4.15625,0.197266 l -4.05859,-0.466797 6.31445,-4.4375 9.56641,-3.570313 c 0,0 -10.83178,-1.718683 -16.1836,-0.970703 -5.00403,0.699379 -10.20439,2.063618 -14.300778,5.021485 -4.294946,3.101229 -6.79149,8.160186 -9.714844,12.578125 -1.885555,2.849558 -5.017578,8.9375 -5.017578,8.9375 l -7.310547,-5.085938 c 0,0 -2.456167,8.015509 -2.070312,12.083984 0.40247,4.243596 1.642333,8.802926 4.490234,11.97461 1.00203,1.492922 7.894155,4.15019 6.578125,3.955028 0,0 -4.170086,8.59909 -8.25,9.25 -4.424895,0.70595 -9.201,-2.9814 -11.625,-6.75 -1.834647,-2.852325 -1,-10.125 -1,-10.125 L 62.5,87.5 58.625,95.75 c 0,0 -0.203602,-8.600835 0.75,-12.75 0.828476,-3.604736 2.507559,-6.987424 4.25,-10.25 2.547823,-4.770584 5.458923,-9.412133 9,-13.5 3.554712,-4.103607 7.499358,-8.032642 12.125,-10.875 2.742478,-1.685194 6.029676,-2.259739 9,-3.5 1.979303,-0.826459 3.85749,-1.896764 5.875,-2.625 3.78458,-1.366073 11.625,-3.25 11.625,-3.25 0,0 -7.09755,-2.165688 -10.75,-2.125 z"
       sodipodi:nodetypes="ssssssccccssccccsssccsccsscccsssssscsscscsccccssccccsssccsccsscccsssssscsscssscccsssccccsssccsccsscccsssssscs" /><path
       id="path35660"
       style="fill:#64296b;fill-opacity:1;stroke:#64296b;stroke-opacity:1"
       d="M 99.75 10.375 L 22.240234 55.125 L 22.240234 144.625 L 99.75 189.375 L 177.25977 144.625 L 177.25977 55.125 L 99.75 10.375 z M 99.625 15 L 173.25391 57.220703 L 173.50391 142.0957 L 100.125 184.75 L 26.496094 142.5293 L 26.246094 57.654297 L 99.625 15 z " /></g></svg>
